<mxfile host="65bd71144e">
    <diagram id="ZVUdOUKgoVoyLPJf2E9T" name="Page-1">
        <mxGraphModel dx="709" dy="1020" grid="1" gridSize="10" guides="1" tooltips="1" connect="1" arrows="1" fold="1" page="1" pageScale="1" pageWidth="850" pageHeight="1100" math="0" shadow="0">
            <root>
                <mxCell id="0"/>
                <mxCell id="1" parent="0"/>
                <mxCell id="2" value="" style="endArrow=none;html=1;" edge="1" parent="1">
                    <mxGeometry width="50" height="50" relative="1" as="geometry">
                        <mxPoint x="30" y="380" as="sourcePoint"/>
                        <mxPoint x="190" y="300" as="targetPoint"/>
                    </mxGeometry>
                </mxCell>
                <mxCell id="3" value="" style="endArrow=none;html=1;" edge="1" parent="1">
                    <mxGeometry width="50" height="50" relative="1" as="geometry">
                        <mxPoint x="350" y="380" as="sourcePoint"/>
                        <mxPoint x="190" y="300" as="targetPoint"/>
                    </mxGeometry>
                </mxCell>
                <mxCell id="4" value="" style="endArrow=none;html=1;" edge="1" parent="1">
                    <mxGeometry width="50" height="50" relative="1" as="geometry">
                        <mxPoint x="190" y="20" as="sourcePoint"/>
                        <mxPoint x="190" y="300" as="targetPoint"/>
                    </mxGeometry>
                </mxCell>
                <mxCell id="5" value="" style="endArrow=none;html=1;fillColor=#60a917;strokeColor=#2D7600;" edge="1" parent="1">
                    <mxGeometry width="50" height="50" relative="1" as="geometry">
                        <mxPoint x="250" y="330" as="sourcePoint"/>
                        <mxPoint x="190" y="280" as="targetPoint"/>
                    </mxGeometry>
                </mxCell>
                <mxCell id="6" value="" style="endArrow=none;html=1;fillColor=#60a917;strokeColor=#2D7600;" edge="1" parent="1">
                    <mxGeometry width="50" height="50" relative="1" as="geometry">
                        <mxPoint x="30" y="380" as="sourcePoint"/>
                        <mxPoint x="190" y="280" as="targetPoint"/>
                    </mxGeometry>
                </mxCell>
                <mxCell id="7" value="" style="endArrow=none;html=1;fillColor=#60a917;strokeColor=#2D7600;" edge="1" parent="1">
                    <mxGeometry width="50" height="50" relative="1" as="geometry">
                        <mxPoint x="30" y="380" as="sourcePoint"/>
                        <mxPoint x="250" y="330" as="targetPoint"/>
                    </mxGeometry>
                </mxCell>
                <mxCell id="8" value="" style="endArrow=none;html=1;fillColor=#a20025;strokeColor=#6F0000;" edge="1" parent="1">
                    <mxGeometry width="50" height="50" relative="1" as="geometry">
                        <mxPoint x="190" y="20" as="sourcePoint"/>
                        <mxPoint x="350" y="380" as="targetPoint"/>
                    </mxGeometry>
                </mxCell>
                <mxCell id="9" value="" style="endArrow=none;html=1;fillColor=#a20025;strokeColor=#6F0000;" edge="1" parent="1">
                    <mxGeometry width="50" height="50" relative="1" as="geometry">
                        <mxPoint x="190" y="20" as="sourcePoint"/>
                        <mxPoint x="150" y="320" as="targetPoint"/>
                    </mxGeometry>
                </mxCell>
                <mxCell id="10" value="" style="endArrow=none;html=1;fillColor=#a20025;strokeColor=#6F0000;" edge="1" parent="1">
                    <mxGeometry width="50" height="50" relative="1" as="geometry">
                        <mxPoint x="350" y="380" as="sourcePoint"/>
                        <mxPoint x="150" y="320" as="targetPoint"/>
                    </mxGeometry>
                </mxCell>
                <mxCell id="11" value="MB/s/£" style="text;html=1;strokeColor=none;fillColor=none;align=center;verticalAlign=middle;whiteSpace=wrap;rounded=0;" vertex="1" parent="1">
                    <mxGeometry x="310" y="380" width="80" height="20" as="geometry"/>
                </mxCell>
                <mxCell id="12" value="GB/£" style="text;html=1;strokeColor=none;fillColor=none;align=center;verticalAlign=middle;whiteSpace=wrap;rounded=0;" vertex="1" parent="1">
                    <mxGeometry x="170" width="40" height="20" as="geometry"/>
                </mxCell>
                <mxCell id="13" value="Ops/s/£" style="text;html=1;strokeColor=none;fillColor=none;align=center;verticalAlign=middle;whiteSpace=wrap;rounded=0;" vertex="1" parent="1">
                    <mxGeometry y="380" width="60" height="20" as="geometry"/>
                </mxCell>
                <mxCell id="15" value="SSD" style="text;html=1;strokeColor=none;fillColor=none;align=center;verticalAlign=middle;whiteSpace=wrap;rounded=0;fontColor=#009900;" vertex="1" parent="1">
                    <mxGeometry x="50" y="280" width="40" height="20" as="geometry"/>
                </mxCell>
                <mxCell id="16" value="HDD" style="text;html=1;strokeColor=none;fillColor=none;align=center;verticalAlign=middle;whiteSpace=wrap;rounded=0;fontSize=15;fontColor=#6F0000;" vertex="1" parent="1">
                    <mxGeometry x="280" y="150" width="80" height="20" as="geometry"/>
                </mxCell>
                <mxCell id="17" value="Hard Disk Drive" style="text;html=1;strokeColor=none;fillColor=none;align=center;verticalAlign=middle;whiteSpace=wrap;rounded=0;fontSize=10;fontColor=#6F0000;" vertex="1" parent="1">
                    <mxGeometry x="280" y="170" width="80" height="20" as="geometry"/>
                </mxCell>
                <mxCell id="18" value="Solid State Drive" style="text;html=1;strokeColor=none;fillColor=none;align=center;verticalAlign=middle;whiteSpace=wrap;rounded=0;fontSize=10;fontColor=#009900;" vertex="1" parent="1">
                    <mxGeometry x="30" y="300" width="80" height="20" as="geometry"/>
                </mxCell>
            </root>
        </mxGraphModel>
    </diagram>
</mxfile>